<?xml version="1.0" encoding="UTF-8"?>
<svg version="1.1" xmlns="http://www.w3.org/2000/svg" width="3840" height="2304">
<path d="M0 0 C1267.2 0 2534.4 0 3840 0 C3840 760.32 3840 1520.64 3840 2304 C2572.8 2304 1305.6 2304 0 2304 C0 1543.68 0 783.36 0 0 Z " fill="#CE1124" transform="translate(0,0)"/>
<path d="M0 0 C557.7 0 1115.4 0 1690 0 C1690 304.26 1690 608.52 1690 922 C1132.3 922 574.6 922 0 922 C0 617.74 0 313.48 0 0 Z " fill="#FEFEFE" transform="translate(2150,1382)"/>
<path d="M0 0 C557.7 0 1115.4 0 1690 0 C1690 304.26 1690 608.52 1690 922 C1132.3 922 574.6 922 0 922 C0 617.74 0 313.48 0 0 Z " fill="#FEFEFE" transform="translate(0,1382)"/>
<path d="M0 0 C557.7 0 1115.4 0 1690 0 C1690 304.26 1690 608.52 1690 922 C1132.3 922 574.6 922 0 922 C0 617.74 0 313.48 0 0 Z " fill="#FEFEFE" transform="translate(2150,0)"/>
<path d="M0 0 C557.7 0 1115.4 0 1690 0 C1690 304.26 1690 608.52 1690 922 C1132.3 922 574.6 922 0 922 C0 617.74 0 313.48 0 0 Z " fill="#FEFEFE" transform="translate(0,0)"/>
</svg>
