<?xml version="1.0" encoding="UTF-8"?>
<svg version="1.1" xmlns="http://www.w3.org/2000/svg" width="960" height="576">
<path d="M0 0 C316.8 0 633.6 0 960 0 C960 190.08 960 380.16 960 576 C643.2 576 326.4 576 0 576 C0 385.92 0 195.84 0 0 Z " fill="#FEFEFE" transform="translate(0,0)"/>
<path d="M0 0 C15.78505129 9.02002931 15.78505129 9.02002931 21.3828125 12.33984375 C21.99671844 12.70376724 22.61062439 13.06769073 23.24313354 13.44264221 C25.20458611 14.60620296 27.16488424 15.77168892 29.125 16.9375 C29.81319824 17.34629395 30.50139648 17.75508789 31.21044922 18.17626953 C41.41223784 24.23745603 51.57306425 30.36260672 61.70513916 36.53952026 C71.09584879 42.26289869 80.53606993 47.8986213 90 53.5 C100.61130098 59.78046857 111.18099227 66.122925 121.70898438 72.54199219 C131.09842559 78.26451936 140.53738361 83.89939881 150 89.5 C160.61130098 95.78046857 171.18099227 102.122925 181.70898438 108.54199219 C191.09842559 114.26451936 200.53738361 119.89939881 210 125.5 C220.61130098 131.78046857 231.18099227 138.122925 241.70898438 144.54199219 C251.09842559 150.26451936 260.53738361 155.89939881 270 161.5 C281.18179981 168.11812745 292.31274361 174.81260823 303.40649414 181.57714844 C312.37496308 187.03941531 321.39932271 192.40403753 330.4375 197.75 C342.72109118 205.01567519 354.91385944 212.40875663 367 220 C365.6796353 223.9610941 364.13539314 224.36517686 360.54296875 226.4140625 C359.97739258 226.740578 359.41181641 227.06709351 358.82910156 227.40350342 C357.59989793 228.11210561 356.36837603 228.81669785 355.13485718 229.51776123 C351.79791868 231.41509559 348.47839484 233.3425456 345.15625 235.265625 C344.12989693 235.85813553 344.12989693 235.85813553 343.08280945 236.46261597 C336.38920503 240.33396257 329.78404645 244.34068556 323.1875 248.375 C313.1692301 254.49257905 303.10215167 260.52199982 293 266.5 C282.96290768 272.44031075 272.9582 278.4283432 263 284.5 C252.36671155 290.98326787 241.6763327 297.36477342 230.95898438 303.70800781 C221.60315969 309.24705071 212.28309988 314.83996139 203 320.5 C192.36671155 326.98326787 181.6763327 333.36477342 170.95898438 339.70800781 C161.60315969 345.24705071 152.28309988 350.83996139 143 356.5 C132.36671155 362.98326787 121.6763327 369.36477342 110.95898438 375.70800781 C101.60315969 381.24705071 92.28309988 386.83996139 83 392.5 C72.37444336 398.97855367 61.69261899 405.35681341 50.98214722 411.69390869 C39.97671731 418.20709106 29.0260943 424.80562514 18.11914062 431.48242188 C17.04986328 432.13533203 15.98058594 432.78824219 14.87890625 433.4609375 C13.9566626 434.02603027 13.03441895 434.59112305 12.08422852 435.17333984 C8.10359575 437.53090292 4.04419781 439.75322344 0 442 C0 296.14 0 150.28 0 0 Z " fill="#005EB8" transform="translate(0,67)"/>
<path d="M0 0 C242.22 0 484.44 0 734 0 C731.09216417 2.90783583 728.20027338 4.81225693 724.69140625 6.8515625 C724.06193588 7.22256073 723.43246552 7.59355896 722.78392029 7.97579956 C721.42421312 8.77671799 720.06333365 9.57564888 718.70141602 10.37280273 C715.04662989 12.51244411 711.40070695 14.66709859 707.75390625 16.8203125 C707.01194 17.25792908 706.26997375 17.69554565 705.50552368 18.14642334 C698.63340657 22.2045282 691.81205562 26.34193429 685 30.5 C674.36767044 36.98481554 663.67630841 43.36478779 652.95898438 49.70800781 C643.60315969 55.24705071 634.28309988 60.83996139 625 66.5 C614.36671155 72.98326787 603.6763327 79.36477342 592.95898438 85.70800781 C583.60315969 91.24705071 574.28309988 96.83996139 565 102.5 C554.36671155 108.98326787 543.6763327 115.36477342 532.95898438 121.70800781 C523.60315969 127.24705071 514.28309988 132.83996139 505 138.5 C494.36671155 144.98326787 483.6763327 151.36477342 472.95898438 157.70800781 C463.60315969 163.24705071 454.28309988 168.83996139 445 174.5 C434.37589222 180.97767029 423.69668807 187.35716016 412.98617554 193.69088745 C405.60675686 198.05536898 398.2433047 202.44249432 390.92578125 206.91015625 C390.2789035 207.304841 389.63202576 207.69952576 388.96554565 208.10617065 C385.89597672 209.98038773 382.82961068 211.85959028 379.76757812 213.74609375 C378.68541016 214.40867188 377.60324219 215.07125 376.48828125 215.75390625 C375.07349487 216.62511108 375.07349487 216.62511108 373.63012695 217.51391602 C371.10488319 218.94073852 368.77520966 220.15131026 366 221 C363.62380749 219.90105149 361.80686764 218.80273387 359.6875 217.3125 C358.26229234 216.36758526 356.83356251 215.42797252 355.40234375 214.4921875 C354.15493408 213.67379395 354.15493408 213.67379395 352.88232422 212.83886719 C347.61124646 209.47602137 342.20932903 206.33124887 336.82241821 203.15853882 C333.31047198 201.08935093 329.80331892 199.01208892 326.296875 196.93359375 C325.24497734 196.31007774 325.24497734 196.31007774 324.17182922 195.67396545 C317.41801494 191.66473182 310.70567929 187.58907579 304 183.5 C294.04202493 177.42797273 284.03695533 171.44053289 274 165.5 C263.38869902 159.21953143 252.81900773 152.877075 242.29101562 146.45800781 C232.90157441 140.73548064 223.46261639 135.10060119 214 129.5 C203.96303579 123.55946185 193.95832633 117.57146025 184 111.5 C173.97680571 105.39107481 163.91110838 99.35843895 153.8125 93.375 C153.13546021 92.97379944 152.45842041 92.57259888 151.76086426 92.15924072 C151.08728882 91.7600946 150.41371338 91.36094849 149.71972656 90.94970703 C148.37694158 90.15399084 147.03416803 89.35825535 145.69140625 88.5625 C144.70743362 87.97938553 144.70743362 87.97938553 143.70358276 87.38449097 C128.19088125 78.18749674 112.75740511 68.86054696 97.35290527 59.48382568 C87.66108429 53.58693853 77.91504106 47.78637739 68.14501953 42.01977539 C59.47610938 36.89506403 50.86128187 31.68640169 42.2649231 26.44134521 C35.6503814 22.40606978 29.01888467 18.40436232 22.33984375 14.4765625 C21.71518219 14.108797 21.09052063 13.74103149 20.44692993 13.36212158 C17.4481259 11.59763476 14.44629221 9.83864899 11.43945312 8.08789062 C10.37533203 7.46333984 9.31121094 6.83878906 8.21484375 6.1953125 C7.27761475 5.64891113 6.34038574 5.10250977 5.37475586 4.53955078 C3 3 3 3 0 0 Z " fill="#005EB8" transform="translate(113,0)"/>
<path d="M0 0 C3.14411898 1.57377384 6.17769235 3.29021269 9.19042969 5.09863281 C9.81707016 5.47104599 10.44371063 5.84345917 11.08934021 6.22715759 C13.14476384 7.45020408 15.19694033 8.67858478 17.24902344 9.90722656 C18.69487479 10.7693939 20.14083992 11.63137046 21.58691406 12.49316406 C31.21814323 18.23970268 40.81277121 24.04522771 50.38919067 29.88259888 C59.78070936 35.60655649 69.22173908 41.24284223 78.68652344 46.84472656 C89.29782442 53.12519514 99.86751571 59.46765157 110.39550781 65.88671875 C119.78494903 71.60924592 129.22390704 77.24412538 138.68652344 82.84472656 C149.29782442 89.12519514 159.86751571 95.46765157 170.39550781 101.88671875 C179.78494903 107.60924592 189.22390704 113.24412538 198.68652344 118.84472656 C209.29782442 125.12519514 219.86751571 131.46765157 230.39550781 137.88671875 C239.78494903 143.60924592 249.22390704 149.24412538 258.68652344 154.84472656 C269.29782442 161.12519514 279.86751571 167.46765157 290.39550781 173.88671875 C299.78496539 179.6092559 309.22455014 185.24301794 318.68652344 190.84472656 C328.6908382 196.7717705 338.68734389 202.71132112 348.64086914 208.72338867 C349.86814042 209.46400843 351.0963151 210.20313349 352.32543945 210.94067383 C354.01738731 211.95649626 355.70556582 212.97858899 357.39355469 214.00097656 C358.82405151 214.86432617 358.82405151 214.86432617 360.28344727 215.74511719 C362.68652344 217.34472656 362.68652344 217.34472656 365.68652344 220.34472656 C123.46652344 220.34472656 -118.75347656 220.34472656 -368.31347656 220.34472656 C-364.47942139 217.27748242 -361.00257982 214.85637002 -356.80957031 212.39550781 C-356.18238602 212.0256073 -355.55520172 211.65570679 -354.90901184 211.27459717 C-353.56053176 210.4796362 -352.21106921 209.68633981 -350.86071777 208.89456177 C-347.25014856 206.77701087 -343.647305 204.64638994 -340.04394531 202.51660156 C-339.31063995 202.08352188 -338.57733459 201.6504422 -337.82180786 201.20423889 C-330.70175314 196.99411829 -323.62711669 192.71113554 -316.56347656 188.40722656 C-305.50666622 181.67476633 -294.42169341 174.99194761 -283.31347656 168.34472656 C-279.31275378 165.95009805 -275.31276628 163.55424772 -271.31347656 161.15722656 C-270.26748291 160.53041992 -269.22148926 159.90361328 -268.14379883 159.2578125 C-262.59045256 155.92572056 -257.04607866 152.5795622 -251.51660156 149.20800781 C-239.07018924 141.62047491 -226.58141855 134.12348974 -213.98880005 126.78076172 C-204.52270922 121.25844021 -195.13059989 115.62567558 -185.77587891 109.91699219 C-176.33036088 104.15434741 -166.83574051 98.47957519 -157.31347656 92.84472656 C-147.27638424 86.90441581 -137.27167657 80.91638337 -127.31347656 74.84472656 C-116.68018812 68.36145869 -105.98980926 61.97995314 -95.27246094 55.63671875 C-84.77336021 49.4208082 -74.32793048 43.1228639 -63.91137695 36.76977539 C-57.67090142 32.96823545 -51.41075492 29.20277252 -45.12207031 25.48144531 C-44.43016098 25.07191116 -43.73825165 24.66237701 -43.02537537 24.24043274 C-39.57307012 22.19828449 -36.1185569 20.15995766 -32.66186523 18.12524414 C-26.78285609 14.65615104 -20.94872403 11.15830008 -15.24316406 7.40722656 C-13.92167358 6.54061401 -13.92167358 6.54061401 -12.57348633 5.65649414 C-10.99757525 4.6106551 -9.43193245 3.54908859 -7.87963867 2.46850586 C-2.92541188 -0.82859914 -2.92541188 -0.82859914 0 0 Z " fill="#005EB8" transform="translate(481.3134765625,355.6552734375)"/>
<path d="M0 0 C0 145.86 0 291.72 0 442 C-9.04247897 436.83286916 -18.00016034 431.62320863 -26.875 426.1875 C-37.20509898 419.88145058 -47.58402915 413.66306298 -58 407.5 C-68.61151621 401.21989991 -79.18099722 394.87707198 -89.70898438 388.45800781 C-99.09842559 382.73548064 -108.53738361 377.10060119 -118 371.5 C-128.61130098 365.21953143 -139.18099227 358.877075 -149.70898438 352.45800781 C-159.09842559 346.73548064 -168.53738361 341.10060119 -178 335.5 C-188.61130098 329.21953143 -199.18099227 322.877075 -209.70898438 316.45800781 C-219.09842559 310.73548064 -228.53738361 305.10060119 -238 299.5 C-248.61130098 293.21953143 -259.18099227 286.877075 -269.70898438 280.45800781 C-279.09842764 274.73547939 -288.53746233 269.10073693 -298 263.5 C-309.32877853 256.79407837 -320.61597297 250.02514362 -331.85253906 243.16577148 C-337.64707634 239.63150579 -343.45621948 236.12645549 -349.30078125 232.67578125 C-350.48060656 231.97698328 -351.66037645 231.27809175 -352.84008789 230.57910156 C-355.06872071 229.26110149 -357.30084964 227.94899052 -359.53686523 226.64355469 C-360.51985596 226.0612207 -361.50284668 225.47888672 -362.515625 224.87890625 C-363.38477539 224.3691626 -364.25392578 223.85941895 -365.14941406 223.33422852 C-365.76010742 222.89393311 -366.37080078 222.4536377 -367 222 C-367 221.34 -367 220.68 -367 220 C-365.02066988 218.64924093 -363.05779011 217.43811093 -360.984375 216.24609375 C-360.35065979 215.87368057 -359.71694458 215.5012674 -359.06402588 215.11756897 C-357.68713283 214.30939579 -356.30827676 213.50456007 -354.92773438 212.70263672 C-351.22986492 210.55439014 -347.54591279 208.38245717 -343.859375 206.21484375 C-343.10813354 205.77413544 -342.35689209 205.33342712 -341.58288574 204.87936401 C-334.67747999 200.82444118 -327.83348312 196.67488619 -321 192.5 C-310.2551489 185.94812995 -299.45166065 179.5005516 -288.62207031 173.08984375 C-280.21535597 168.11223659 -271.83294085 163.10060615 -263.5 158 C-254.48459387 152.48165578 -245.4082485 147.07183907 -236.3125 141.6875 C-225.59756539 135.34456232 -214.92367829 128.94096385 -204.29238892 122.45883179 C-194.22735625 116.32456438 -184.10241996 110.29554712 -173.95898438 104.29199219 C-164.60315969 98.75294929 -155.28309988 93.16003861 -146 87.5 C-135.36671155 81.01673213 -124.6763327 74.63522658 -113.95898438 68.29199219 C-104.60315969 62.75294929 -95.28309988 57.16003861 -86 51.5 C-76.04179038 45.42833733 -66.03670976 39.44096886 -56 33.5 C-45.53095698 27.30148884 -35.08813643 21.06270463 -24.6875 14.75 C-23.56794922 14.07130859 -22.44839844 13.39261719 -21.29492188 12.69335938 C-15.16157553 8.96276727 -9.08284926 5.16225653 -3.05786133 1.25878906 C-1 0 -1 0 0 0 Z " fill="#005EB8" transform="translate(960,67)"/>
</svg>
